<svg xmlns="http://www.w3.org/2000/svg" xmlns:xlink="http://www.w3.org/1999/xlink" width="500" zoomAndPan="magnify" viewBox="0 0 375 374.999991" height="500" preserveAspectRatio="xMidYMid meet" version="1.0"><defs><clipPath id="3cc9c98d6e"><path d="M 2.460938 0 L 372 0 L 372 375 L 2.460938 375 Z M 2.460938 0 " clip-rule="nonzero"/></clipPath></defs><g clip-path="url(#3cc9c98d6e)"><path fill="#000000" d="M 53.726562 123.03125 L 121.308594 123.03125 C 121.109375 124.480469 120.925781 125.945312 120.820312 127.429688 C 120.613281 130.25 121.585938 133.058594 123.496094 135.121094 C 125.410156 137.1875 128.132812 138.371094 130.960938 138.371094 L 243.710938 138.371094 C 246.539062 138.371094 249.261719 137.1875 251.175781 135.121094 C 253.085938 133.058594 254.058594 130.25 253.851562 127.429688 C 253.734375 125.945312 253.5625 124.480469 253.351562 123.03125 L 320.945312 123.03125 C 323.621094 123.03125 326.207031 121.90625 328.023438 119.945312 C 329.84375 117.984375 330.773438 115.324219 330.574219 112.644531 C 328.835938 89.460938 313.703125 70.058594 293.167969 61.851562 C 301.105469 55.460938 306.195312 45.664062 306.195312 34.699219 C 306.203125 15.484375 290.585938 -0.148438 271.394531 -0.148438 C 252.21875 -0.148438 236.597656 15.484375 236.597656 34.699219 C 236.597656 45.664062 241.683594 55.460938 249.621094 61.851562 C 240.746094 65.382812 232.761719 71.042969 226.421875 78.4375 C 221.542969 74.886719 216.179688 71.972656 210.464844 69.835938 C 219.957031 62.746094 226.109375 51.421875 226.109375 38.679688 C 226.109375 17.269531 208.714844 -0.148438 187.335938 -0.148438 C 165.957031 -0.148438 148.5625 17.269531 148.5625 38.679688 C 148.5625 51.421875 154.714844 62.746094 164.207031 69.835938 C 158.492188 71.972656 153.128906 74.886719 148.25 78.4375 C 141.910156 71.042969 133.925781 65.382812 125.050781 61.851562 C 132.988281 55.460938 138.074219 45.664062 138.074219 34.699219 C 138.074219 15.484375 122.453125 -0.148438 103.277344 -0.148438 C 84.085938 -0.148438 68.464844 15.484375 68.464844 34.699219 C 68.464844 45.664062 73.566406 55.460938 81.492188 61.851562 C 60.96875 70.058594 45.835938 89.460938 44.097656 112.632812 C 43.890625 115.3125 44.816406 117.984375 46.636719 119.945312 C 48.453125 121.90625 51.039062 123.03125 53.726562 123.03125 Z M 248.460938 34.699219 C 248.460938 22.039062 258.753906 11.734375 271.394531 11.734375 C 284.050781 11.734375 294.339844 22.039062 294.339844 34.699219 C 294.339844 47.359375 284.050781 57.664062 271.40625 57.664062 C 271.40625 57.664062 271.40625 57.664062 271.394531 57.664062 C 258.753906 57.664062 248.460938 47.359375 248.460938 34.699219 Z M 271.394531 69.546875 L 271.40625 69.546875 C 295.3125 69.558594 315.546875 87.636719 318.511719 111.148438 L 250.535156 111.148438 C 247.351562 101.726562 242.101562 93.253906 235.367188 86.234375 C 244.371094 75.707031 257.5 69.546875 271.394531 69.546875 Z M 160.429688 38.679688 C 160.429688 23.824219 172.492188 11.734375 187.335938 11.734375 C 202.179688 11.734375 214.242188 23.824219 214.242188 38.679688 C 214.242188 53.542969 202.179688 65.636719 187.335938 65.636719 C 172.492188 65.636719 160.429688 53.542969 160.429688 38.679688 Z M 241.855469 126.488281 L 132.816406 126.488281 C 135.816406 98.882812 159.421875 77.519531 187.335938 77.519531 C 215.25 77.519531 238.855469 98.882812 241.855469 126.488281 Z M 80.332031 34.699219 C 80.332031 22.039062 90.621094 11.734375 103.277344 11.734375 C 115.917969 11.734375 126.210938 22.039062 126.210938 34.699219 C 126.210938 47.359375 115.917969 57.664062 103.277344 57.664062 C 103.265625 57.664062 103.265625 57.664062 103.265625 57.664062 C 90.621094 57.664062 80.332031 47.359375 80.332031 34.699219 Z M 103.265625 69.546875 L 103.277344 69.546875 C 117.171875 69.546875 130.300781 75.707031 139.304688 86.234375 C 132.570312 93.253906 127.332031 101.726562 124.136719 111.148438 L 56.171875 111.148438 C 59.125 87.636719 79.371094 69.558594 103.265625 69.546875 Z M 371.515625 282.589844 L 345.976562 154.199219 C 345.324219 150.941406 343.4375 148.109375 340.667969 146.261719 C 337.886719 144.40625 334.574219 143.734375 331.304688 144.382812 L 298.441406 150.941406 C 295.171875 151.601562 292.359375 153.480469 290.503906 156.265625 C 288.648438 159.039062 287.988281 162.371094 288.636719 165.640625 L 288.925781 167.09375 C 269.296875 173.589844 245.4375 175.402344 215.773438 150.894531 C 202.144531 139.636719 184.382812 139.265625 171.578125 149.976562 L 158.320312 161.058594 L 86.082031 161.058594 C 85.210938 156.125 81.421875 151.984375 76.230469 150.941406 L 43.367188 144.382812 C 40.109375 143.734375 36.785156 144.40625 34.003906 146.261719 C 31.234375 148.109375 29.347656 150.941406 28.695312 154.199219 L 3.15625 282.589844 C 2.507812 285.851562 3.167969 289.183594 5.023438 291.957031 C 6.875 294.738281 9.691406 296.632812 12.949219 297.28125 L 45.824219 303.839844 C 46.636719 304 47.457031 304.082031 48.269531 304.082031 C 50.714844 304.082031 53.101562 303.363281 55.175781 301.96875 C 57.957031 300.113281 59.84375 297.292969 60.496094 294.019531 L 60.585938 293.523438 L 138.355469 371.386719 C 143.164062 376.214844 149.5 378.628906 155.828125 378.628906 C 162.15625 378.628906 168.480469 376.214844 173.304688 371.386719 C 176.546875 368.136719 178.785156 364.121094 179.828125 359.734375 L 190.476562 370.398438 C 200.105469 380.042969 215.785156 380.042969 225.425781 370.398438 C 228.75 367.070312 230.929688 363.007812 231.949219 358.738281 C 236.5625 363.125 242.574219 365.539062 248.996094 365.539062 C 255.613281 365.539062 261.8125 362.960938 266.46875 358.308594 C 271.777344 352.992188 274.164062 345.832031 273.621094 338.859375 C 274.257812 338.917969 274.90625 338.941406 275.554688 338.941406 C 282.160156 338.941406 288.371094 336.375 293.03125 331.710938 C 299.519531 325.203125 301.753906 315.5 299.113281 306.855469 L 313.808594 292.140625 L 314.175781 294.019531 C 314.828125 297.292969 316.714844 300.113281 319.496094 301.96875 C 321.570312 303.363281 323.957031 304.082031 326.402344 304.082031 C 327.214844 304.082031 328.035156 304 328.847656 303.839844 L 361.722656 297.28125 C 364.980469 296.632812 367.796875 294.738281 369.648438 291.957031 C 371.503906 289.183594 372.164062 285.851562 371.515625 282.589844 Z M 48.59375 292.082031 C 48.488281 292.152344 48.328125 292.222656 48.140625 292.1875 L 15.265625 285.621094 C 15.082031 285.585938 14.953125 285.457031 14.894531 285.363281 C 14.828125 285.257812 14.757812 285.109375 14.792969 284.910156 L 40.332031 156.519531 C 40.378906 156.324219 40.492188 156.207031 40.597656 156.136719 C 40.679688 156.09375 40.792969 156.035156 40.933594 156.035156 C 40.96875 156.035156 41.015625 156.035156 41.050781 156.046875 L 73.914062 162.601562 C 74.238281 162.660156 74.457031 162.996094 74.398438 163.308594 L 48.847656 291.699219 C 48.8125 291.898438 48.6875 292.011719 48.59375 292.082031 Z M 284.628906 323.308594 C 282.21875 325.722656 278.996094 327.058594 275.542969 327.058594 C 272.101562 327.058594 268.878906 325.722656 266.46875 323.308594 L 210.546875 267.320312 C 208.230469 265 204.472656 265 202.15625 267.320312 C 199.839844 269.628906 199.839844 273.398438 202.15625 275.722656 L 258.070312 331.710938 C 263.085938 336.722656 263.085938 344.882812 258.082031 349.90625 C 255.660156 352.320312 252.4375 353.644531 248.996094 353.644531 C 245.542969 353.644531 242.320312 352.320312 239.910156 349.90625 L 180.824219 290.738281 C 178.507812 288.414062 174.75 288.414062 172.433594 290.738281 C 170.117188 293.058594 170.117188 296.816406 172.433594 299.136719 L 217.023438 343.804688 L 217.046875 343.828125 C 222.042969 348.839844 222.03125 356.984375 217.035156 361.988281 C 212.019531 367 203.871094 367.011719 198.867188 361.988281 L 151.101562 314.164062 C 148.78125 311.84375 145.027344 311.84375 142.710938 314.164062 C 140.394531 316.476562 140.394531 320.246094 142.710938 322.566406 L 164.914062 344.789062 C 164.914062 344.800781 164.914062 344.800781 164.914062 344.800781 C 167.324219 347.214844 168.644531 350.441406 168.644531 353.886719 C 168.644531 357.34375 167.324219 360.570312 164.914062 362.984375 C 159.894531 368 151.75 368 146.742188 362.984375 L 63.378906 279.515625 L 84.574219 172.941406 L 144.101562 172.941406 L 127.507812 186.820312 C 120.136719 192.980469 116.972656 201.394531 118.816406 209.890625 L 132.1875 271.230469 C 132.523438 272.796875 133.488281 274.164062 134.84375 275.011719 C 136.210938 275.859375 137.855469 276.117188 139.40625 275.730469 C 155.503906 271.761719 166.269531 263.988281 172.316406 251.964844 C 177.542969 241.59375 178.585938 229.789062 179.675781 217.316406 C 179.816406 215.726562 179.953125 214.136719 180.105469 212.535156 C 180.117188 212.453125 180.128906 212.394531 180.140625 212.347656 C 182.261719 211.617188 192.039062 213.742188 206.746094 227.121094 L 287.222656 308.886719 C 289.402344 313.726562 288.382812 319.550781 284.628906 323.308594 Z M 292.183594 296.992188 L 215.078125 218.664062 C 215.007812 218.582031 214.925781 218.511719 214.855469 218.441406 C 199.398438 204.34375 184.832031 197.914062 175.875 201.265625 C 171.632812 202.84375 168.875 206.464844 168.320312 211.199219 C 168.308594 211.246094 168.308594 211.292969 168.308594 211.339844 C 168.144531 212.988281 168.007812 214.636719 167.855469 216.273438 C 165.921875 238.320312 164.484375 254.71875 142.421875 262.46875 L 130.414062 207.359375 C 129.210938 201.847656 132.835938 197.84375 135.109375 195.941406 L 179.179688 159.097656 C 187.464844 152.167969 199.132812 152.550781 208.21875 160.0625 C 241.683594 187.703125 269.714844 185.660156 291.269531 178.824219 L 311.015625 278.121094 Z M 359.777344 285.363281 C 359.71875 285.457031 359.589844 285.585938 359.40625 285.621094 L 326.53125 292.1875 C 326.332031 292.222656 326.183594 292.152344 326.078125 292.082031 C 325.984375 292.011719 325.859375 291.898438 325.824219 291.699219 L 300.273438 163.308594 C 300.238281 163.125 300.308594 162.960938 300.375 162.855469 C 300.445312 162.765625 300.5625 162.636719 300.757812 162.601562 L 333.621094 156.046875 C 333.65625 156.035156 333.703125 156.035156 333.738281 156.035156 C 333.878906 156.035156 333.992188 156.09375 334.074219 156.136719 C 334.179688 156.207031 334.292969 156.324219 334.339844 156.519531 L 359.878906 284.910156 C 359.914062 285.109375 359.84375 285.257812 359.777344 285.363281 Z M 359.777344 285.363281 " fill-opacity="1" fill-rule="nonzero"/></g><path stroke-linecap="butt" transform="matrix(0.364951, -0.655218, 0.655218, 0.364951, 132.475337, 189.292884)" fill="none" stroke-linejoin="miter" d="M -0.00115868 1.999704 L 20.246121 2.001768 " stroke="#000000" stroke-width="4" stroke-opacity="1" stroke-miterlimit="4"/></svg>