<svg xmlns="http://www.w3.org/2000/svg" xmlns:xlink="http://www.w3.org/1999/xlink" width="500" zoomAndPan="magnify" viewBox="0 0 375 374.999991" height="500" preserveAspectRatio="xMidYMid meet" version="1.0"><defs><clipPath id="6bb73e1aa1"><path d="M 28 45.703125 L 120 45.703125 L 120 137 L 28 137 Z M 28 45.703125 " clip-rule="nonzero"/></clipPath><clipPath id="e083b34a66"><path d="M 255 45.703125 L 347 45.703125 L 347 137 L 255 137 Z M 255 45.703125 " clip-rule="nonzero"/></clipPath><clipPath id="cd56c76920"><path d="M 1 146 L 374 146 L 374 329.203125 L 1 329.203125 Z M 1 146 " clip-rule="nonzero"/></clipPath></defs><g clip-path="url(#6bb73e1aa1)"><path fill="#000000" d="M 73.578125 136.558594 C 98.636719 136.558594 119.019531 116.179688 119.019531 91.128906 C 119.019531 66.082031 98.636719 45.703125 73.578125 45.703125 C 48.523438 45.703125 28.136719 66.082031 28.136719 91.128906 C 28.136719 116.179688 48.523438 136.558594 73.578125 136.558594 Z M 73.578125 60.300781 C 90.582031 60.300781 104.417969 74.128906 104.417969 91.128906 C 104.417969 108.128906 90.582031 121.957031 73.578125 121.957031 C 56.574219 121.957031 42.738281 108.128906 42.738281 91.128906 C 42.738281 74.128906 56.574219 60.300781 73.578125 60.300781 Z M 73.578125 60.300781 " fill-opacity="1" fill-rule="nonzero"/></g><g clip-path="url(#e083b34a66)"><path fill="#000000" d="M 301.421875 136.558594 C 326.476562 136.558594 346.863281 116.179688 346.863281 91.128906 C 346.863281 66.082031 326.476562 45.703125 301.421875 45.703125 C 276.363281 45.703125 255.980469 66.082031 255.980469 91.128906 C 255.980469 116.179688 276.363281 136.558594 301.421875 136.558594 Z M 301.421875 60.300781 C 318.425781 60.300781 332.261719 74.128906 332.261719 91.128906 C 332.261719 108.128906 318.425781 121.957031 301.421875 121.957031 C 284.417969 121.957031 270.582031 108.128906 270.582031 91.128906 C 270.582031 74.128906 284.417969 60.300781 301.421875 60.300781 Z M 301.421875 60.300781 " fill-opacity="1" fill-rule="nonzero"/></g><g clip-path="url(#cd56c76920)"><path fill="#000000" d="M 372.84375 218.800781 L 370.503906 204.769531 C 364.859375 170.863281 335.804688 146.253906 301.421875 146.253906 C 271.648438 146.253906 245.53125 165.097656 235.625 192.359375 C 221.332031 183.207031 204.621094 178.257812 187.5 178.257812 C 170.378906 178.257812 153.667969 183.207031 139.375 192.359375 C 129.46875 165.097656 103.351562 146.253906 73.578125 146.253906 C 39.195312 146.253906 10.140625 170.863281 4.496094 204.769531 L 2.15625 218.800781 C 0.222656 230.414062 3.480469 242.226562 11.09375 251.207031 C 18.707031 260.191406 29.828125 265.339844 41.605469 265.339844 L 97.453125 265.339844 L 96.5 271.0625 C 94.085938 285.570312 98.152344 300.324219 107.664062 311.546875 C 117.171875 322.769531 131.066406 329.203125 145.777344 329.203125 L 229.222656 329.203125 C 243.933594 329.203125 257.828125 322.769531 267.335938 311.546875 C 276.847656 300.324219 280.914062 285.570312 278.5 271.0625 L 277.546875 265.339844 L 333.394531 265.339844 C 345.171875 265.339844 356.292969 260.191406 363.90625 251.207031 C 371.519531 242.226562 374.777344 230.414062 372.84375 218.800781 Z M 22.234375 241.769531 C 17.402344 236.066406 15.335938 228.570312 16.5625 221.199219 L 18.898438 207.167969 C 23.367188 180.332031 46.363281 160.851562 73.578125 160.851562 C 98.75 160.851562 120.621094 177.867188 127.074219 201.851562 C 113.035156 214.792969 103.480469 231.960938 99.910156 250.742188 L 41.605469 250.742188 C 34.128906 250.742188 27.070312 247.472656 22.234375 241.769531 Z M 256.195312 302.109375 C 249.464844 310.050781 239.632812 314.605469 229.222656 314.605469 L 145.777344 314.605469 C 135.367188 314.605469 125.535156 310.050781 118.804688 302.109375 C 112.074219 294.167969 109.195312 283.726562 110.90625 273.460938 L 113.953125 255.152344 C 116.847656 237.765625 125.851562 221.917969 139.300781 210.523438 C 152.753906 199.132812 169.871094 192.855469 187.5 192.855469 C 205.128906 192.855469 222.246094 199.132812 235.699219 210.523438 C 249.148438 221.917969 258.152344 237.765625 261.046875 255.152344 L 264.09375 273.460938 C 265.804688 283.726562 262.925781 294.167969 256.195312 302.109375 Z M 352.765625 241.769531 C 347.929688 247.472656 340.871094 250.742188 333.394531 250.742188 L 275.089844 250.742188 C 271.515625 231.960938 261.964844 214.792969 247.925781 201.851562 C 254.378906 177.867188 276.25 160.851562 301.421875 160.851562 C 328.636719 160.851562 351.632812 180.332031 356.101562 207.167969 L 358.4375 221.199219 C 359.664062 228.570312 357.597656 236.066406 352.765625 241.769531 Z M 352.765625 241.769531 " fill-opacity="1" fill-rule="nonzero"/></g><path fill="#000000" d="M 187.5 163.757812 C 218.96875 163.757812 244.570312 138.164062 244.570312 106.703125 C 244.570312 75.246094 218.96875 49.652344 187.5 49.652344 C 156.03125 49.652344 130.429688 75.246094 130.429688 106.703125 C 130.429688 138.164062 156.03125 163.757812 187.5 163.757812 Z M 187.5 64.25 C 210.917969 64.25 229.96875 83.296875 229.96875 106.703125 C 229.96875 130.113281 210.917969 149.15625 187.5 149.15625 C 164.082031 149.15625 145.03125 130.113281 145.03125 106.703125 C 145.03125 83.296875 164.082031 64.25 187.5 64.25 Z M 187.5 64.25 " fill-opacity="1" fill-rule="nonzero"/><path stroke-linecap="butt" transform="matrix(-0.194114, -0.724444, 0.724444, -0.194114, 126.046007, 187.884304)" fill="none" stroke-linejoin="miter" d="M -0.000436554 2.001537 L 17.809501 2.001719 " stroke="#000000" stroke-width="4" stroke-opacity="1" stroke-miterlimit="4"/></svg>