<svg xmlns="http://www.w3.org/2000/svg" xmlns:xlink="http://www.w3.org/1999/xlink" width="500" zoomAndPan="magnify" viewBox="0 0 375 374.999991" height="500" preserveAspectRatio="xMidYMid meet" version="1.0"><defs><g/><clipPath id="bf3ce3183b"><path d="M 109.261719 97 L 193.128906 97 L 193.128906 150.992188 L 109.261719 150.992188 Z M 109.261719 97 " clip-rule="nonzero"/></clipPath><clipPath id="fa5b41e814"><path d="M 37.5 136 L 110 136 L 110 241 L 37.5 241 Z M 37.5 136 " clip-rule="nonzero"/></clipPath><clipPath id="38216a5bd0"><path d="M 109.261719 225.730469 L 193.128906 225.730469 L 193.128906 279.851562 L 109.261719 279.851562 Z M 109.261719 225.730469 " clip-rule="nonzero"/></clipPath><clipPath id="ed6608fc22"><rect x="0" width="225" y="0" height="39"/></clipPath></defs><g clip-path="url(#bf3ce3183b)"><path fill="#193050" d="M 125.472656 104.195312 C 136.160156 108.714844 145.773438 115.152344 154.0625 123.324219 L 140.109375 137.273438 C 149.851562 139.398438 158.59375 144.242188 165.488281 150.96875 L 193.132812 123.324219 C 184.84375 115.152344 175.230469 108.714844 164.542969 104.195312 C 153.257812 99.421875 141.285156 97 128.949219 97 C 122.316406 97 115.789062 97.707031 109.414062 99.097656 C 114.890625 100.292969 120.257812 101.988281 125.472656 104.195312 " fill-opacity="1" fill-rule="nonzero"/></g><g clip-path="url(#fa5b41e814)"><path fill="#193050" d="M 76.59375 188.425781 C 76.59375 166.464844 90.191406 147.617188 109.410156 139.859375 C 103.371094 137.417969 96.78125 136.074219 89.878906 136.074219 C 61.011719 136.074219 37.523438 159.558594 37.523438 188.425781 C 37.523438 217.296875 61.011719 240.78125 89.878906 240.78125 C 96.78125 240.78125 103.371094 239.433594 109.410156 236.996094 C 90.191406 229.238281 76.59375 210.394531 76.59375 188.425781 " fill-opacity="1" fill-rule="nonzero"/></g><g clip-path="url(#38216a5bd0)"><path fill="#193050" d="M 140.109375 239.582031 L 154.0625 253.53125 C 145.773438 261.703125 136.160156 268.140625 125.472656 272.660156 C 120.257812 274.867188 114.890625 276.5625 109.414062 277.757812 C 115.789062 279.144531 122.316406 279.851562 128.949219 279.851562 C 141.285156 279.851562 153.257812 277.433594 164.542969 272.660156 C 175.230469 268.140625 184.84375 261.703125 193.132812 253.53125 L 165.488281 225.886719 C 158.59375 232.613281 149.851562 237.457031 140.109375 239.582031 " fill-opacity="1" fill-rule="nonzero"/></g><g fill="#ffffff" fill-opacity="1"><g transform="translate(37.500002, 191.999987)"><g><path d="M 3.59375 0.125 C 1.5625 0.125 0.546875 -0.992188 0.546875 -3.234375 C 0.546875 -4.347656 0.820312 -5.195312 1.375 -5.78125 C 1.925781 -6.375 2.71875 -6.671875 3.75 -6.671875 C 4.507812 -6.671875 5.191406 -6.523438 5.796875 -6.234375 L 5.265625 -4.84375 C 4.984375 -4.957031 4.722656 -5.050781 4.484375 -5.125 C 4.242188 -5.195312 4 -5.234375 3.75 -5.234375 C 2.820312 -5.234375 2.359375 -4.570312 2.359375 -3.25 C 2.359375 -1.96875 2.820312 -1.328125 3.75 -1.328125 C 4.09375 -1.328125 4.410156 -1.375 4.703125 -1.46875 C 5.003906 -1.5625 5.300781 -1.707031 5.59375 -1.90625 L 5.59375 -0.375 C 5.300781 -0.1875 5.003906 -0.0546875 4.703125 0.015625 C 4.410156 0.0859375 4.039062 0.125 3.59375 0.125 Z M 3.59375 0.125 "/></g></g><g transform="translate(43.669924, 191.999987)"><g><path d="M 6.984375 0 L 5.203125 0 L 5.203125 -3.828125 C 5.203125 -4.773438 4.847656 -5.25 4.140625 -5.25 C 3.640625 -5.25 3.273438 -5.078125 3.046875 -4.734375 C 2.828125 -4.390625 2.71875 -3.835938 2.71875 -3.078125 L 2.71875 0 L 0.9375 0 L 0.9375 -9.125 L 2.71875 -9.125 L 2.71875 -7.265625 C 2.71875 -7.117188 2.707031 -6.773438 2.6875 -6.234375 L 2.640625 -5.71875 L 2.734375 -5.71875 C 3.128906 -6.351562 3.765625 -6.671875 4.640625 -6.671875 C 5.410156 -6.671875 5.992188 -6.460938 6.390625 -6.046875 C 6.785156 -5.640625 6.984375 -5.046875 6.984375 -4.265625 Z M 6.984375 0 "/></g></g><g transform="translate(51.556642, 191.999987)"><g><path d="M 3.65625 -5.40625 C 3.269531 -5.40625 2.96875 -5.285156 2.75 -5.046875 C 2.539062 -4.804688 2.421875 -4.460938 2.390625 -4.015625 L 4.90625 -4.015625 C 4.894531 -4.460938 4.773438 -4.804688 4.546875 -5.046875 C 4.328125 -5.285156 4.03125 -5.40625 3.65625 -5.40625 Z M 3.90625 0.125 C 2.851562 0.125 2.03125 -0.164062 1.4375 -0.75 C 0.84375 -1.332031 0.546875 -2.160156 0.546875 -3.234375 C 0.546875 -4.328125 0.816406 -5.171875 1.359375 -5.765625 C 1.910156 -6.367188 2.671875 -6.671875 3.640625 -6.671875 C 4.566406 -6.671875 5.285156 -6.40625 5.796875 -5.875 C 6.316406 -5.351562 6.578125 -4.628906 6.578125 -3.703125 L 6.578125 -2.828125 L 2.34375 -2.828125 C 2.363281 -2.316406 2.515625 -1.921875 2.796875 -1.640625 C 3.078125 -1.359375 3.472656 -1.21875 3.984375 -1.21875 C 4.378906 -1.21875 4.75 -1.253906 5.09375 -1.328125 C 5.445312 -1.410156 5.816406 -1.546875 6.203125 -1.734375 L 6.203125 -0.34375 C 5.890625 -0.1875 5.554688 -0.0703125 5.203125 0 C 4.847656 0.0820312 4.414062 0.125 3.90625 0.125 Z M 3.90625 0.125 "/></g></g><g transform="translate(58.646485, 191.999987)"><g><path d="M 0.859375 -8.25 C 0.859375 -8.832031 1.179688 -9.125 1.828125 -9.125 C 2.484375 -9.125 2.8125 -8.832031 2.8125 -8.25 C 2.8125 -7.96875 2.726562 -7.75 2.5625 -7.59375 C 2.40625 -7.4375 2.160156 -7.359375 1.828125 -7.359375 C 1.179688 -7.359375 0.859375 -7.65625 0.859375 -8.25 Z M 2.71875 0 L 0.9375 0 L 0.9375 -6.546875 L 2.71875 -6.546875 Z M 2.71875 0 "/></g></g><g transform="translate(62.308594, 191.999987)"><g><path d="M 3.59375 0.125 C 1.5625 0.125 0.546875 -0.992188 0.546875 -3.234375 C 0.546875 -4.347656 0.820312 -5.195312 1.375 -5.78125 C 1.925781 -6.375 2.71875 -6.671875 3.75 -6.671875 C 4.507812 -6.671875 5.191406 -6.523438 5.796875 -6.234375 L 5.265625 -4.84375 C 4.984375 -4.957031 4.722656 -5.050781 4.484375 -5.125 C 4.242188 -5.195312 4 -5.234375 3.75 -5.234375 C 2.820312 -5.234375 2.359375 -4.570312 2.359375 -3.25 C 2.359375 -1.96875 2.820312 -1.328125 3.75 -1.328125 C 4.09375 -1.328125 4.410156 -1.375 4.703125 -1.46875 C 5.003906 -1.5625 5.300781 -1.707031 5.59375 -1.90625 L 5.59375 -0.375 C 5.300781 -0.1875 5.003906 -0.0546875 4.703125 0.015625 C 4.410156 0.0859375 4.039062 0.125 3.59375 0.125 Z M 3.59375 0.125 "/></g></g><g transform="translate(68.478516, 191.999987)"><g><path d="M 2.65625 -3.5625 L 3.4375 -4.5625 L 5.265625 -6.546875 L 7.28125 -6.546875 L 4.6875 -3.703125 L 7.4375 0 L 5.375 0 L 3.5 -2.65625 L 2.71875 -2.046875 L 2.71875 0 L 0.9375 0 L 0.9375 -9.125 L 2.71875 -9.125 L 2.71875 -5.046875 L 2.625 -3.5625 Z M 2.65625 -3.5625 "/></g></g></g><g transform="matrix(1, 0, 0, 1, 125, 168)"><g clip-path="url(#ed6608fc22)"><g fill="#193050" fill-opacity="1"><g transform="translate(0.651759, 30.055787)"><g><path d="M 10.890625 0.25 L 10.296875 0.21875 L 9.734375 0.09375 L 9.109375 -0.125 L 8.546875 -0.25 L 7.125 -0.84375 L 5.78125 -1.5625 L 4.375 -2.78125 L 3.09375 -4.15625 L 1.75 -6.875 L 1.3125 -8.671875 L 1.125 -10.953125 L 1.4375 -13.640625 L 1.75 -14.921875 L 2.53125 -16.671875 L 3.125 -17.578125 L 3.96875 -18.640625 L 5.3125 -19.859375 L 6.21875 -20.546875 L 8.546875 -21.640625 L 11.578125 -22.234375 L 13.515625 -22.203125 L 14.140625 -22.109375 L 14.734375 -22.078125 L 17.734375 -21.078125 L 19.859375 -19.734375 L 20.734375 -18.828125 L 21.078125 -18.234375 L 21.515625 -17.703125 L 21.796875 -17.203125 L 22.140625 -16.703125 L 22.328125 -16.046875 L 22.546875 -15.484375 L 22.734375 -14.796875 L 22.515625 -14.171875 L 21.984375 -13.921875 L 21.046875 -13.828125 L 20.171875 -13.921875 L 19.546875 -13.890625 L 18.890625 -13.921875 L 18.328125 -13.859375 L 17.609375 -14.203125 L 17.015625 -14.796875 L 16.671875 -15.265625 L 15.765625 -16.171875 L 15.328125 -16.515625 L 14.765625 -16.734375 L 13.796875 -17.015625 L 12.453125 -17.078125 L 10.359375 -16.796875 L 9.515625 -16.328125 L 8.765625 -15.734375 L 8.015625 -14.859375 L 7.6875 -14.265625 L 7.21875 -13.140625 L 7 -11.890625 L 7 -9.984375 L 7.09375 -9.296875 L 7.25 -8.734375 L 7.46875 -8.296875 L 7.6875 -7.65625 L 8.390625 -6.5625 L 9.296875 -5.75 L 10.390625 -5.1875 L 11.515625 -4.78125 L 12.421875 -4.6875 L 14.078125 -4.78125 L 15.171875 -5.375 L 15.640625 -5.5625 L 16.140625 -6 L 16.859375 -6.8125 L 17.171875 -7.40625 L 17.671875 -7.921875 L 18.390625 -8.296875 L 19.015625 -8.265625 L 19.640625 -8.296875 L 20.265625 -8.203125 L 22.015625 -8.328125 L 22.640625 -7.921875 L 22.828125 -7.34375 L 22.015625 -4.96875 L 21.359375 -3.84375 L 20.640625 -2.90625 L 19.765625 -2.03125 L 18.234375 -0.9375 L 17.703125 -0.6875 L 17.046875 -0.46875 L 16.484375 -0.15625 L 14.640625 0.21875 L 12.453125 0.375 Z M 10.890625 0.25 "/></g></g></g><g fill="#193050" fill-opacity="1"><g transform="translate(24.513317, 30.055787)"><g><path d="M 11.703125 0.375 L 11.046875 0.3125 L 9.921875 0.0625 L 9.234375 0 L 8.328125 -0.3125 L 5.875 -1.5625 L 4.84375 -2.375 L 4.5 -2.78125 L 4.03125 -3.21875 L 3.625 -3.71875 L 3.25 -4.09375 L 1.8125 -6.9375 L 1.53125 -8.140625 L 1.46875 -8.734375 L 1.3125 -9.296875 L 1.21875 -9.953125 L 1.3125 -12.484375 L 1.84375 -14.890625 L 2.3125 -16.078125 L 3.28125 -17.734375 L 4.8125 -19.515625 L 5.875 -20.296875 L 6.4375 -20.578125 L 6.90625 -20.921875 L 9.265625 -21.796875 L 12.578125 -22.265625 L 13.421875 -22.234375 L 15.234375 -21.921875 L 17.640625 -21.171875 L 18.109375 -20.828125 L 19.046875 -20.421875 L 19.765625 -19.921875 L 20.671875 -19.140625 L 21.546875 -18.171875 L 22.234375 -17.234375 L 22.828125 -16.078125 L 23.625 -13.734375 L 23.84375 -12.453125 L 23.9375 -10.890625 L 23.8125 -9.984375 L 23.78125 -9.328125 L 23.625 -8.703125 L 23.59375 -8.140625 L 23.328125 -6.9375 L 22.859375 -5.75 L 21.484375 -3.65625 L 21.046875 -3.21875 L 20.640625 -2.65625 L 19.765625 -1.90625 L 19.171875 -1.625 L 18.703125 -1.25 L 17.671875 -0.6875 L 15.328125 0.09375 L 13.453125 0.34375 Z M 13.453125 -5.15625 L 14.078125 -5.28125 L 14.546875 -5.5 L 15.109375 -5.65625 L 16.609375 -6.6875 L 17.046875 -7.1875 L 17.234375 -7.65625 L 17.578125 -8.234375 L 17.796875 -8.796875 L 18.046875 -9.953125 L 18.109375 -11.859375 L 18.015625 -12.421875 L 17.734375 -13.015625 L 17.359375 -14.203125 L 16.140625 -15.484375 L 15.171875 -16.171875 L 14.609375 -16.421875 L 14.046875 -16.546875 L 12.546875 -16.734375 L 11.671875 -16.671875 L 10.453125 -16.359375 L 10.046875 -16.203125 L 8.484375 -15.140625 L 7.71875 -14.140625 L 7.53125 -13.578125 L 7.28125 -13.015625 L 7.1875 -12.421875 L 7.03125 -11.859375 L 7.03125 -9.953125 L 7.28125 -8.796875 L 7.5625 -8.234375 L 7.71875 -7.71875 L 8.171875 -7.125 L 8.578125 -6.6875 L 9.421875 -6 L 9.921875 -5.71875 L 11.046875 -5.25 L 11.734375 -5.15625 Z M 13.453125 -5.15625 "/></g></g></g><g fill="#193050" fill-opacity="1"><g transform="translate(49.594542, 30.055787)"><g><path d="M 2.34375 -0.90625 L 2.28125 -1.5625 L 2.40625 -2.15625 L 2.34375 -2.78125 L 2.375 -6.59375 L 2.3125 -7.15625 L 2.28125 -8.421875 L 2.375 -9.046875 L 2.28125 -10.296875 L 2.375 -10.890625 L 2.28125 -12.234375 L 2.375 -12.828125 L 2.3125 -13.453125 L 2.40625 -14.015625 L 2.3125 -14.671875 L 2.375 -15.296875 L 2.34375 -15.890625 L 2.4375 -16.578125 L 2.375 -17.171875 L 2.28125 -17.796875 L 2.375 -18.453125 L 2.4375 -19.046875 L 2.25 -20.671875 L 2.65625 -21.515625 L 3.5625 -21.859375 L 6.8125 -21.921875 L 7.625 -21.546875 L 7.953125 -20.609375 L 8.015625 -19.078125 L 7.953125 -18.390625 L 8.046875 -13.515625 L 7.953125 -12.859375 L 8.046875 -12.171875 L 7.953125 -11.296875 L 7.984375 -9.734375 L 7.921875 -9.078125 L 7.984375 -8.453125 L 7.953125 -7.75 L 8.046875 -7.15625 L 8.015625 -6 L 8.203125 -5.3125 L 8.859375 -5.03125 L 14.359375 -4.96875 L 15.046875 -5.0625 L 15.546875 -4.75 L 15.953125 -4.0625 L 15.859375 -3.46875 L 15.953125 -2.78125 L 15.890625 -2.21875 L 15.859375 -1.59375 L 15.921875 -0.90625 L 15.578125 -0.34375 L 14.703125 -0.03125 L 3.625 0.03125 L 2.625 -0.34375 Z M 2.34375 -0.90625 "/></g></g></g><g fill="#193050" fill-opacity="1"><g transform="translate(66.419606, 30.055787)"><g><path d="M 2.34375 -0.90625 L 2.28125 -1.5625 L 2.40625 -2.15625 L 2.34375 -2.78125 L 2.375 -6.59375 L 2.3125 -7.15625 L 2.28125 -8.421875 L 2.375 -9.046875 L 2.28125 -10.296875 L 2.375 -10.890625 L 2.28125 -12.234375 L 2.375 -12.828125 L 2.3125 -13.453125 L 2.40625 -14.015625 L 2.3125 -14.671875 L 2.375 -15.296875 L 2.34375 -15.890625 L 2.4375 -16.578125 L 2.375 -17.171875 L 2.28125 -17.796875 L 2.375 -18.453125 L 2.4375 -19.046875 L 2.25 -20.671875 L 2.65625 -21.515625 L 3.5625 -21.859375 L 6.8125 -21.921875 L 7.625 -21.546875 L 7.953125 -20.609375 L 8.015625 -19.078125 L 7.953125 -18.390625 L 8.046875 -13.515625 L 7.953125 -12.859375 L 8.046875 -12.171875 L 7.953125 -11.296875 L 7.984375 -9.734375 L 7.921875 -9.078125 L 7.984375 -8.453125 L 7.953125 -7.75 L 8.046875 -7.15625 L 8.015625 -6 L 8.203125 -5.3125 L 8.859375 -5.03125 L 14.359375 -4.96875 L 15.046875 -5.0625 L 15.546875 -4.75 L 15.953125 -4.0625 L 15.859375 -3.46875 L 15.953125 -2.78125 L 15.890625 -2.21875 L 15.859375 -1.59375 L 15.921875 -0.90625 L 15.578125 -0.34375 L 14.703125 -0.03125 L 3.625 0.03125 L 2.625 -0.34375 Z M 2.34375 -0.90625 "/></g></g></g><g fill="#193050" fill-opacity="1"><g transform="translate(83.244669, 30.055787)"><g><path d="M 2.25 -0.90625 L 2.375 -1.53125 L 2.40625 -2.15625 L 2.34375 -3.375 L 2.34375 -4 L 2.28125 -4.71875 L 2.375 -5.28125 L 2.34375 -5.875 L 2.40625 -6.5625 L 2.3125 -7.21875 L 2.375 -8.484375 L 2.28125 -9.703125 L 2.375 -10.359375 L 2.375 -15.953125 L 2.3125 -16.515625 L 2.375 -17.171875 L 2.25 -18.765625 L 2.375 -19.671875 L 2.3125 -20.921875 L 2.625 -21.609375 L 3.53125 -21.828125 L 7.625 -21.921875 L 8.203125 -21.859375 L 9.421875 -21.890625 L 10.046875 -21.828125 L 11.421875 -21.890625 L 12.046875 -21.796875 L 12.609375 -21.859375 L 15.109375 -21.828125 L 15.765625 -21.546875 L 16.078125 -20.921875 L 15.984375 -20.328125 L 15.953125 -19.640625 L 16.046875 -19.046875 L 16.109375 -17.765625 L 15.765625 -17.203125 L 15.109375 -16.859375 L 9.109375 -16.828125 L 8.140625 -16.546875 L 7.8125 -15.640625 L 7.890625 -14.671875 L 8.265625 -14.109375 L 8.796875 -13.765625 L 11.265625 -13.796875 L 11.984375 -13.734375 L 12.640625 -13.734375 L 13.265625 -13.796875 L 14.515625 -13.765625 L 15.046875 -13.421875 L 15.328125 -12.828125 L 15.390625 -12.203125 L 15.328125 -9.734375 L 15.015625 -9.140625 L 14.390625 -8.796875 L 13.828125 -8.765625 L 13.171875 -8.828125 L 12.328125 -8.765625 L 10.671875 -8.859375 L 10.046875 -8.796875 L 8.828125 -8.796875 L 8.265625 -8.453125 L 7.984375 -7.78125 L 7.953125 -6.25 L 8.234375 -5.28125 L 8.890625 -4.90625 L 9.578125 -4.96875 L 10.265625 -4.90625 L 10.859375 -5 L 14.984375 -4.9375 L 15.921875 -4.625 L 16.328125 -4 L 16.265625 -3.40625 L 16.296875 -1.46875 L 16.234375 -0.875 L 15.953125 -0.28125 L 15.296875 0.03125 L 14.703125 0.09375 L 12.796875 -0.03125 L 10.890625 0.0625 L 10.328125 -0.03125 L 3.25 0.03125 L 2.65625 -0.3125 Z M 2.25 -0.90625 "/></g></g></g><g fill="#193050" fill-opacity="1"><g transform="translate(100.9141, 30.055787)"><g><path d="M 11.515625 0.3125 L 10.921875 0.3125 L 10.359375 0.1875 L 9.703125 0.125 L 9.046875 -0.09375 L 8.578125 -0.21875 L 7.953125 -0.4375 L 5.8125 -1.59375 L 5.34375 -1.96875 L 4.8125 -2.3125 L 3.6875 -3.40625 L 2.4375 -5.21875 L 2.21875 -5.75 L 1.90625 -6.3125 L 1.8125 -6.875 L 1.5625 -7.46875 L 1.25 -8.703125 L 1.25 -9.953125 L 1.125 -10.953125 L 1.6875 -14.859375 L 3.125 -17.671875 L 3.5 -18.203125 L 4.34375 -18.984375 L 4.71875 -19.484375 L 6.90625 -20.890625 L 7.46875 -21.109375 L 7.953125 -21.390625 L 8.546875 -21.609375 L 9.765625 -21.859375 L 10.359375 -22.046875 L 10.890625 -22.109375 L 13.734375 -22.109375 L 15.296875 -21.890625 L 16.515625 -21.546875 L 18.296875 -20.734375 L 18.984375 -20.265625 L 20.609375 -18.796875 L 21.765625 -17.203125 L 22.265625 -16.015625 L 22.359375 -15.453125 L 22.609375 -14.828125 L 22.421875 -14.171875 L 21.921875 -13.890625 L 21.296875 -13.828125 L 18.140625 -13.890625 L 17.453125 -14.171875 L 16.890625 -14.765625 L 16.609375 -15.296875 L 16.140625 -15.796875 L 15.234375 -16.546875 L 14.578125 -16.765625 L 13.390625 -16.984375 L 11.453125 -17.046875 L 10.359375 -16.734375 L 9.765625 -16.484375 L 8.734375 -15.734375 L 7.953125 -14.765625 L 7.40625 -13.640625 L 7.21875 -13.078125 L 7.1875 -12.453125 L 6.96875 -11.890625 L 6.9375 -10.890625 L 7.03125 -9.421875 L 7.40625 -8.203125 L 7.65625 -7.65625 L 8.828125 -6.15625 L 9.234375 -5.71875 L 9.828125 -5.4375 L 11.515625 -4.8125 L 13.265625 -4.78125 L 13.921875 -4.84375 L 14.546875 -5.03125 L 15.609375 -5.5625 L 16.796875 -6.84375 L 17.046875 -7.375 L 17.671875 -7.984375 L 18.359375 -8.296875 L 21.703125 -8.265625 L 22.484375 -7.921875 L 22.671875 -7.34375 L 22.578125 -6.75 L 22.359375 -6.125 L 22.203125 -5.53125 L 21.921875 -4.96875 L 20.984375 -3.34375 L 20.453125 -2.9375 L 20.109375 -2.40625 L 19.703125 -2 L 19.171875 -1.625 L 18.609375 -1.28125 L 18.140625 -0.96875 L 16.421875 -0.21875 L 13.390625 0.40625 Z M 11.515625 0.3125 "/></g></g></g><g fill="#193050" fill-opacity="1"><g transform="translate(124.462917, 30.055787)"><g><path d="M 6 -0.96875 L 5.96875 -3.40625 L 6.03125 -4.03125 L 5.9375 -5.9375 L 5.96875 -6.59375 L 5.9375 -7.21875 L 6.0625 -8.171875 L 5.96875 -9.078125 L 5.96875 -10.328125 L 6.03125 -10.953125 L 5.96875 -11.546875 L 6.0625 -12.515625 L 5.96875 -15.953125 L 5.65625 -16.546875 L 5.09375 -16.890625 L 2.3125 -16.921875 L 1.5 -16.828125 L 0.875 -17.140625 L 0.53125 -17.828125 L 0.5625 -20.953125 L 0.875 -21.578125 L 1.5625 -21.890625 L 10.890625 -21.828125 L 11.609375 -21.921875 L 12.234375 -21.921875 L 12.859375 -21.859375 L 13.484375 -21.859375 L 14.171875 -21.953125 L 14.765625 -21.953125 L 15.265625 -21.890625 L 16.015625 -21.953125 L 16.640625 -21.640625 L 16.953125 -21.015625 L 16.890625 -18.453125 L 16.953125 -17.796875 L 16.640625 -17.171875 L 15.921875 -16.890625 L 14.203125 -16.921875 L 13.640625 -16.859375 L 13.015625 -16.890625 L 12.484375 -16.859375 L 11.796875 -16.578125 L 11.546875 -16.015625 L 11.609375 -15.328125 L 11.515625 -14.703125 L 11.640625 -8.484375 L 11.546875 -7.15625 L 11.609375 -6.59375 L 11.546875 -4.6875 L 11.453125 -4.03125 L 11.546875 -3.5 L 11.578125 -2.25 L 11.515625 -1.53125 L 11.546875 -0.9375 L 11.296875 -0.3125 L 10.671875 -0.0625 L 8.734375 -0.0625 L 8.140625 0 L 7.5 -0.0625 L 6.90625 0 L 6.25 -0.3125 Z M 6 -0.96875 "/></g></g></g><g fill="#193050" fill-opacity="1"><g transform="translate(141.94472, 30.055787)"><g><path d="M 1.5 -0.90625 L 1.5 -3.3125 L 1.5625 -3.90625 L 1.9375 -4.5 L 4 -5.15625 L 4.3125 -5.84375 L 4.375 -7.0625 L 4.25 -8.421875 L 4.40625 -9.046875 L 4.28125 -10.265625 L 4.34375 -10.890625 L 4.375 -12.171875 L 4.28125 -12.890625 L 4.25 -13.421875 L 4.34375 -16.078125 L 3.9375 -16.640625 L 2.03125 -17.296875 L 1.71875 -17.890625 L 1.71875 -18.484375 L 1.65625 -19.109375 L 1.65625 -19.796875 L 1.71875 -20.328125 L 1.71875 -20.921875 L 2.0625 -21.578125 L 2.75 -21.890625 L 3.96875 -21.828125 L 4.5625 -21.859375 L 6.46875 -21.828125 L 7.15625 -21.890625 L 11.140625 -21.859375 L 12.140625 -21.578125 L 12.390625 -20.953125 L 12.453125 -20.328125 L 12.390625 -19.765625 L 12.390625 -17.921875 L 12.046875 -17.328125 L 11.453125 -16.984375 L 10.765625 -16.953125 L 10.171875 -16.609375 L 9.828125 -16.046875 L 9.828125 -14.734375 L 9.890625 -14.078125 L 9.828125 -13.453125 L 9.890625 -12.859375 L 9.828125 -11.890625 L 9.890625 -10.953125 L 9.765625 -9.640625 L 9.890625 -8.390625 L 9.828125 -5.8125 L 10.171875 -5.1875 L 12.265625 -4.53125 L 12.703125 -4 L 12.609375 -2.09375 L 12.671875 -1.53125 L 12.671875 -0.84375 L 12.328125 -0.28125 L 11.734375 0.03125 L 2.4375 -0.03125 L 1.8125 -0.25 Z M 1.5 -0.90625 "/></g></g></g><g fill="#193050" fill-opacity="1"><g transform="translate(155.798808, 30.055787)"><g><path d="M 11.703125 0.375 L 11.046875 0.3125 L 9.921875 0.0625 L 9.234375 0 L 8.328125 -0.3125 L 5.875 -1.5625 L 4.84375 -2.375 L 4.5 -2.78125 L 4.03125 -3.21875 L 3.625 -3.71875 L 3.25 -4.09375 L 1.8125 -6.9375 L 1.53125 -8.140625 L 1.46875 -8.734375 L 1.3125 -9.296875 L 1.21875 -9.953125 L 1.3125 -12.484375 L 1.84375 -14.890625 L 2.3125 -16.078125 L 3.28125 -17.734375 L 4.8125 -19.515625 L 5.875 -20.296875 L 6.4375 -20.578125 L 6.90625 -20.921875 L 9.265625 -21.796875 L 12.578125 -22.265625 L 13.421875 -22.234375 L 15.234375 -21.921875 L 17.640625 -21.171875 L 18.109375 -20.828125 L 19.046875 -20.421875 L 19.765625 -19.921875 L 20.671875 -19.140625 L 21.546875 -18.171875 L 22.234375 -17.234375 L 22.828125 -16.078125 L 23.625 -13.734375 L 23.84375 -12.453125 L 23.9375 -10.890625 L 23.8125 -9.984375 L 23.78125 -9.328125 L 23.625 -8.703125 L 23.59375 -8.140625 L 23.328125 -6.9375 L 22.859375 -5.75 L 21.484375 -3.65625 L 21.046875 -3.21875 L 20.640625 -2.65625 L 19.765625 -1.90625 L 19.171875 -1.625 L 18.703125 -1.25 L 17.671875 -0.6875 L 15.328125 0.09375 L 13.453125 0.34375 Z M 13.453125 -5.15625 L 14.078125 -5.28125 L 14.546875 -5.5 L 15.109375 -5.65625 L 16.609375 -6.6875 L 17.046875 -7.1875 L 17.234375 -7.65625 L 17.578125 -8.234375 L 17.796875 -8.796875 L 18.046875 -9.953125 L 18.109375 -11.859375 L 18.015625 -12.421875 L 17.734375 -13.015625 L 17.359375 -14.203125 L 16.140625 -15.484375 L 15.171875 -16.171875 L 14.609375 -16.421875 L 14.046875 -16.546875 L 12.546875 -16.734375 L 11.671875 -16.671875 L 10.453125 -16.359375 L 10.046875 -16.203125 L 8.484375 -15.140625 L 7.71875 -14.140625 L 7.53125 -13.578125 L 7.28125 -13.015625 L 7.1875 -12.421875 L 7.03125 -11.859375 L 7.03125 -9.953125 L 7.28125 -8.796875 L 7.5625 -8.234375 L 7.71875 -7.71875 L 8.171875 -7.125 L 8.578125 -6.6875 L 9.421875 -6 L 9.921875 -5.71875 L 11.046875 -5.25 L 11.734375 -5.15625 Z M 13.453125 -5.15625 "/></g></g></g><g fill="#193050" fill-opacity="1"><g transform="translate(180.880023, 30.055787)"><g><path d="M 18.453125 -0.5 L 18.046875 -0.90625 L 17.671875 -1.375 L 17.171875 -1.78125 L 16.765625 -2.28125 L 13.734375 -5.3125 L 13.234375 -5.71875 L 8.765625 -10.109375 L 8.359375 -10.203125 L 8.046875 -9.828125 L 8.171875 -9.171875 L 8.078125 -1.5 L 8.171875 -0.875 L 7.890625 -0.25 L 7.25 0.0625 L 6.53125 0 L 5.875 0.09375 L 4.3125 0 L 3.25 0.0625 L 2.65625 -0.28125 L 2.375 -0.96875 L 2.375 -1.5625 L 2.28125 -2.1875 L 2.375 -3.375 L 2.3125 -4 L 2.34375 -5.28125 L 2.25 -5.9375 L 2.25 -6.53125 L 2.3125 -7.21875 L 2.3125 -7.8125 L 2.375 -8.390625 L 2.25 -12.859375 L 2.34375 -13.515625 L 2.3125 -14.171875 L 2.375 -14.734375 L 2.28125 -16.015625 L 2.34375 -16.640625 L 2.28125 -21.015625 L 2.6875 -21.609375 L 3.4375 -21.984375 L 4.28125 -21.734375 L 5.53125 -20.890625 L 7.21875 -19.171875 L 7.625 -18.640625 L 8.171875 -18.265625 L 8.484375 -17.796875 L 9.078125 -17.390625 L 9.421875 -16.921875 L 10.390625 -16.109375 L 11.046875 -15.421875 L 11.390625 -14.984375 L 11.890625 -14.609375 L 12.984375 -13.484375 L 13.453125 -13.109375 L 14.828125 -11.703125 L 15.265625 -11.578125 L 15.421875 -12.078125 L 15.390625 -13.328125 L 15.515625 -13.984375 L 15.515625 -14.578125 L 15.390625 -15.234375 L 15.421875 -20.921875 L 15.734375 -21.578125 L 16.484375 -21.890625 L 17.109375 -21.859375 L 17.671875 -21.921875 L 18.328125 -21.828125 L 19.015625 -21.890625 L 19.609375 -21.890625 L 20.234375 -21.828125 L 20.921875 -21.515625 L 21.296875 -20.953125 L 21.234375 -19.328125 L 21.296875 -18.390625 L 21.171875 -17.765625 L 21.171875 -16.515625 L 21.234375 -15.921875 L 21.140625 -14.671875 L 21.265625 -10.921875 L 21.203125 -10.234375 L 21.328125 -9.359375 L 21.171875 -0.84375 L 20.890625 -0.1875 L 20.171875 0.15625 L 19.359375 -0.09375 Z M 18.453125 -0.5 "/></g></g></g><g fill="#193050" fill-opacity="1"><g transform="translate(204.460114, 30.055787)"><g><path d="M 9.078125 0.25 L 7.75 0.15625 L 7.15625 -0.0625 L 6.46875 -0.15625 L 4.21875 -1.1875 L 3.6875 -1.53125 L 2.78125 -2.4375 L 2 -3.40625 L 1.5 -4.65625 L 1.375 -5.21875 L 1.3125 -5.90625 L 1.53125 -6.5625 L 2.15625 -6.84375 L 2.78125 -6.8125 L 3.40625 -6.875 L 5.78125 -6.8125 L 6.40625 -6.5625 L 6.875 -5.9375 L 7.34375 -5.5 L 7.921875 -5.15625 L 8.390625 -4.9375 L 9.109375 -4.75 L 10.046875 -4.6875 L 10.921875 -4.71875 L 12.078125 -5.0625 L 12.578125 -5.34375 L 13.078125 -5.78125 L 13.265625 -6.59375 L 13.109375 -7.40625 L 12.671875 -7.78125 L 11.546875 -8.265625 L 10.921875 -8.296875 L 10.359375 -8.390625 L 7.78125 -8.578125 L 6.65625 -8.828125 L 4.875 -9.421875 L 3.78125 -10.078125 L 2.90625 -10.890625 L 2.125 -11.921875 L 1.71875 -13.015625 L 1.5 -13.890625 L 1.46875 -15.984375 L 1.90625 -17.796875 L 2.21875 -18.296875 L 2.4375 -18.859375 L 2.84375 -19.265625 L 3.1875 -19.796875 L 3.75 -20.171875 L 4.1875 -20.578125 L 4.8125 -20.953125 L 5.3125 -21.140625 L 5.8125 -21.453125 L 6.375 -21.671875 L 8.859375 -22.171875 L 10.609375 -22.203125 L 11.296875 -22.046875 L 11.859375 -21.984375 L 12.515625 -21.859375 L 14.234375 -21.265625 L 16.234375 -19.890625 L 16.640625 -19.421875 L 16.953125 -18.921875 L 17.359375 -18.421875 L 17.859375 -17.296875 L 18.109375 -16.078125 L 17.828125 -15.484375 L 17.234375 -15.109375 L 16.640625 -15.171875 L 16.078125 -15.109375 L 14.015625 -15.171875 L 13.046875 -15.484375 L 12.015625 -16.578125 L 11.546875 -16.953125 L 10.859375 -17.203125 L 8.859375 -17.140625 L 8.296875 -17.015625 L 7.859375 -16.828125 L 7.3125 -16.421875 L 6.96875 -15.984375 L 6.875 -15.171875 L 6.90625 -14.328125 L 7.40625 -13.828125 L 7.890625 -13.578125 L 9.203125 -13.109375 L 12.359375 -12.703125 L 14.921875 -12.078125 L 16.578125 -11.328125 L 17.109375 -10.890625 L 17.859375 -9.921875 L 18.484375 -8.765625 L 18.640625 -8.171875 L 18.734375 -7.53125 L 18.703125 -5.59375 L 18.609375 -5.03125 L 18.421875 -4.40625 L 18.171875 -3.84375 L 17.546875 -2.84375 L 16.671875 -1.84375 L 15.671875 -1.15625 L 14.046875 -0.28125 L 10.984375 0.3125 L 9.984375 0.34375 Z M 9.078125 0.25 "/></g></g></g></g></g></svg>